<svg width="38" height="35" viewBox="0 0 38 35" fill="none" xmlns="http://www.w3.org/2000/svg">
<path fill-rule="evenodd" clip-rule="evenodd" d="M3.99967 5.33334C3.99967 2.57192 6.23825 0.333344 8.99967 0.333344C11.7611 0.333344 13.9997 2.57192 13.9997 5.33334C13.9997 8.09477 11.7611 10.3333 8.99967 10.3333C6.23825 10.3333 3.99967 8.09477 3.99967 5.33334ZM8.99967 3.66668C8.0792 3.66668 7.333 4.41287 7.333 5.33334C7.333 6.25382 8.0792 7.00001 8.99967 7.00001C9.92014 7.00001 10.6663 6.25382 10.6663 5.33334C10.6663 4.41287 9.92014 3.66668 8.99967 3.66668Z" fill="white"/>
<path fill-rule="evenodd" clip-rule="evenodd" d="M23.9997 5.33334C23.9997 2.57192 26.2382 0.333344 28.9997 0.333344C31.7611 0.333344 33.9997 2.57192 33.9997 5.33334C33.9997 8.09477 31.7611 10.3333 28.9997 10.3333C26.2382 10.3333 23.9997 8.09477 23.9997 5.33334ZM28.9997 3.66668C28.0792 3.66668 27.333 4.41287 27.333 5.33334C27.333 6.25382 28.0792 7.00001 28.9997 7.00001C29.9201 7.00001 30.6663 6.25382 30.6663 5.33334C30.6663 4.41287 29.9201 3.66668 28.9997 3.66668Z" fill="white"/>
<path fill-rule="evenodd" clip-rule="evenodd" d="M12.3329 17C12.3329 13.3181 15.3177 10.3333 18.9996 10.3333C22.6815 10.3333 25.6662 13.3181 25.6662 17C25.6662 20.6819 22.6815 23.6667 18.9996 23.6667C15.3177 23.6667 12.3329 20.6819 12.3329 17ZM18.9996 13.6667C17.1586 13.6667 15.6662 15.1591 15.6662 17C15.6662 18.841 17.1586 20.3333 18.9996 20.3333C20.8405 20.3333 22.3329 18.841 22.3329 17C22.3329 15.1591 20.8405 13.6667 18.9996 13.6667Z" fill="white"/>
<path d="M1.00051 15.9981C2.82215 13.5735 5.7274 12 8.99967 12H10.6663V15.3333H8.99967C6.81995 15.3333 4.88462 16.3777 3.66549 18.0003L2.66437 19.3328L-0.000610352 17.3306L1.00051 15.9981Z" fill="white"/>
<path d="M27.333 12H28.9997C32.2724 12 35.178 13.5739 36.9996 15.999L38.0005 17.3317L35.3353 19.3336L34.3343 18.001C33.1152 16.378 31.1797 15.3333 28.9997 15.3333H27.333V12Z" fill="white"/>
<path d="M8.05577 31.0465C10.4624 27.5963 14.4659 25.3333 18.9983 25.3333C23.5306 25.3333 27.5342 27.5963 29.9408 31.0465L30.8943 32.4135L28.1603 34.3205L27.2068 32.9535C25.3969 30.3587 22.3951 28.6667 18.9983 28.6667C15.6015 28.6667 12.5996 30.3587 10.7897 32.9535L9.83623 34.3205L7.10228 32.4135L8.05577 31.0465Z" fill="white"/>
</svg>
