<svg width="24" height="24" viewBox="0 0 24 24" fill="none" xmlns="http://www.w3.org/2000/svg">
<path fill-rule="evenodd" clip-rule="evenodd" d="M7.99992 14C7.99992 11.7908 9.79078 9.99997 11.9999 9.99997C14.2091 9.99997 15.9999 11.7908 15.9999 14C15.9999 16.2091 14.2091 18 11.9999 18C9.79078 18 7.99992 16.2091 7.99992 14ZM11.9999 12C10.8954 12 9.99992 12.8954 9.99992 14C9.99992 15.1045 10.8954 16 11.9999 16C13.1045 16 13.9999 15.1045 13.9999 14C13.9999 12.8954 13.1045 12 11.9999 12Z" fill="white"/>
<path fill-rule="evenodd" clip-rule="evenodd" d="M11.9999 1.1875L23.4095 10.8856L22.1142 12.4095L20.9999 11.4624V21.9999H2.99992V11.4624L1.88563 12.4095L0.590332 10.8856L11.9999 1.1875ZM4.99992 9.76238V19.9999H18.9999V9.76238L11.9999 3.81238L4.99992 9.76238Z" fill="white"/>
</svg>
